<svg width="120" height="121" viewBox="0 0 120 121" fill="none" xmlns="http://www.w3.org/2000/svg">
<path d="M118 0H27.9998C26.8953 0 25.9998 0.902662 25.9998 2.016V32.2559H29.9998V4.03199H116V114.912C116.019 115.972 115.207 116.86 114.158 116.928C113.986 116.928 113.814 116.914 113.642 116.91C113.288 116.9 112.934 116.891 112.586 116.855C112.556 116.855 112.528 116.855 112.498 116.843C105.966 116.123 100.806 110.927 100.086 104.344C100.086 104.316 100.076 104.285 100.072 104.257C100.023 103.778 99.9992 103.297 99.9997 102.816V98.7838C99.9997 97.6705 99.1042 96.7678 97.9997 96.7678H29.9998V60.4799H25.9998V96.7678H9.99987C8.89538 96.7678 7.99988 97.6705 7.99988 98.7838V102.816C8.01088 112.832 16.0634 120.949 25.9998 120.96H114.2C117.445 120.874 120.025 118.184 120 114.912V2.016C120 0.902662 119.104 0 118 0ZM25.9998 116.928C18.2716 116.919 12.0086 110.606 11.9999 102.816V100.8H95.9997V102.816C96.0024 103.481 96.0404 104.145 96.1137 104.806C96.1317 104.981 96.1657 105.15 96.1897 105.324C96.2557 105.812 96.3357 106.297 96.4417 106.775C96.4777 106.943 96.5237 107.108 96.5657 107.275C96.6877 107.761 96.8257 108.239 96.9857 108.711C97.0317 108.846 97.0797 108.979 97.1297 109.114C97.3117 109.614 97.5177 110.102 97.7437 110.583C97.7917 110.682 97.8357 110.785 97.8837 110.876C98.1344 111.387 98.4097 111.883 98.7097 112.366C98.7497 112.43 98.7857 112.497 98.8257 112.567C99.1517 113.082 99.5037 113.58 99.8797 114.059L99.9437 114.146C100.38 114.698 100.848 115.225 101.344 115.724C101.774 116.154 102.221 116.558 102.684 116.934L25.9998 116.928Z" fill="white"/>
<path d="M65.9999 56.4479C66.5304 56.4479 67.0389 56.2352 67.4139 55.8572L75.4138 47.7932C76.1946 47.006 76.1946 45.7298 75.4138 44.9426L67.4139 36.8786C67.0389 36.5006 66.5304 36.2879 65.9999 36.2879H9.99998C4.47724 36.2879 0 40.801 0 46.3679C0 51.9348 4.47724 56.4479 9.99998 56.4479H65.9999ZM65.4839 40.6344L71.1719 46.3679L65.4839 52.1014L64.0619 46.3679L65.4839 40.6344ZM16 40.3199H61.4399L60.4399 44.3519H20V48.3839H60.4399L61.4399 52.4159H16V40.3199ZM3.99999 46.3679C3.99999 43.0276 6.68624 40.3199 9.99998 40.3199H12V52.4159H9.99998C6.68624 52.4159 3.99999 49.7082 3.99999 46.3679Z" fill="white"/>
<path d="M46 86.6878H106C107.104 86.6878 108 85.7852 108 84.6718V24.1919C108 23.0786 107.104 22.1762 105.999 22.1765C105.469 22.1765 104.961 22.3889 104.586 22.7666L44.586 83.2465C43.805 84.034 43.8052 85.3104 44.5865 86.0976C44.9615 86.4754 45.4697 86.6878 46 86.6878ZM104 29.0586V34.2719H99.9998V38.3039H104V42.3359H99.9998V46.3679H104V50.3999H99.9998V54.4319H104V58.4639H99.9998V62.4959H104V66.5279H99.9998V70.5598H104V74.5918H99.9998V78.6238H104V82.6558H99.9998V78.6238H95.9999V82.6558H91.9999V78.6238H87.9999V82.6558H83.9999V78.6238H79.9999V82.6558H75.9999V78.6238H71.9999V82.6558H67.9999V78.6238H63.9999V82.6558H59.9999V78.6238H55.9999V82.6558H50.8279L104 29.0586Z" fill="white"/>
<path d="M74.9698 74.5918H93.9998C95.1043 74.5918 95.9998 73.6892 95.9998 72.5758V53.3937C95.9996 52.2803 95.1041 51.3779 93.9993 51.3782C93.4691 51.3782 92.9608 51.5906 92.5858 51.9683L73.5558 71.1505C72.7748 71.938 72.7751 73.2144 73.5563 74.0017C73.9313 74.3794 74.4396 74.5918 74.9698 74.5918ZM91.9998 58.2623V70.5598H79.7998L91.9998 58.2623Z" fill="white"/>
<path d="M91.9997 12.096H51.9998V16.128H91.9997V12.096Z" fill="white"/>
<path d="M97.9997 20.16H45.9998V24.1919H97.9997V20.16Z" fill="white"/>
<path d="M46.0001 62.4958H34.0001V66.5278H46.0001V62.4958Z" fill="white"/>
<path d="M42.0001 70.5598H34.0001V74.5918H42.0001V70.5598Z" fill="white"/>
</svg>
