<svg width="120" height="119" viewBox="0 0 120 119" fill="none" xmlns="http://www.w3.org/2000/svg">
<path d="M118 58.4641H72.2598C71.1553 58.4641 70.2598 59.3667 70.2598 60.48C70.2598 61.5934 71.1553 62.496 72.2598 62.496H116V82.656H106V68.544C106 67.4307 105.104 66.528 104 66.528C102.896 66.528 102 67.4307 102 68.544V82.656H48V62.496H60C61.1045 62.496 62 61.5934 62 60.48C62 59.3667 61.1045 58.4641 60 58.4641H46C44.8955 58.4641 44 59.3667 44 60.48V84.672C44 85.7854 44.8955 86.688 46 86.688H64V90.72H46C44.8955 90.72 44 91.6227 44 92.736V106.848H38V104.832C38 103.719 37.1045 102.816 36 102.816H30V92.736C30 91.6227 29.1045 90.72 28 90.72C26.8955 90.72 26 91.6227 26 92.736V104.832C26 105.945 26.8955 106.848 28 106.848H34V110.88H14V106.848H20C21.1045 106.848 22 105.945 22 104.832V92.736C22 91.6227 21.1045 90.72 20 90.72C18.8955 90.72 18 91.6227 18 92.736V102.816H12C10.8955 102.816 10 103.719 10 104.832V106.848H2C0.895508 106.848 0 107.751 0 108.864C0 109.977 0.895508 110.88 2 110.88H10V112.896C10 114.009 10.8955 114.912 12 114.912H36C37.1045 114.912 38 114.009 38 112.896V110.88H44V116.928C44 118.041 44.8955 118.944 46 118.944H118C119.104 118.944 120 118.041 120 116.928V92.736C120 91.6227 119.104 90.72 118 90.72H100V86.688H118C119.104 86.688 120 85.7854 120 84.672V60.48C120 59.3667 119.104 58.4641 118 58.4641ZM116 114.912H48V94.752H102V108.864C102 109.977 102.896 110.88 104 110.88C105.104 110.88 106 109.977 106 108.864V94.752H116V114.912ZM96 90.72H68V86.688H96V90.72Z" fill="white"/>
<path d="M60 66.528C56.6865 66.528 54 69.236 54 72.576C54 75.917 56.6865 78.624 60 78.624C63.3135 78.624 66 75.917 66 72.576C66 69.236 63.3135 66.528 60 66.528ZM60 74.592C58.8955 74.592 58 73.6893 58 72.576C58 71.4627 58.8955 70.56 60 70.56C61.1045 70.56 62 71.4627 62 72.576C62 73.6893 61.1045 74.592 60 74.592Z" fill="white"/>
<path d="M72.0002 78.624C73.1047 78.624 74.0002 77.7213 74.0002 76.608V68.544C74.0002 67.4307 73.1047 66.528 72.0002 66.528C70.8958 66.528 70.0002 67.4307 70.0002 68.544V76.608C70.0002 77.7213 70.8958 78.624 72.0002 78.624Z" fill="white"/>
<path d="M82 76.608V68.544C82 67.4307 81.1045 66.528 80 66.528C78.8955 66.528 78 67.4307 78 68.544V76.608C78 77.7213 78.8955 78.624 80 78.624C81.1045 78.624 82 77.7213 82 76.608Z" fill="white"/>
<path d="M89.9998 76.608V68.544C89.9998 67.4307 89.1043 66.528 87.9998 66.528C86.8953 66.528 85.9998 67.4307 85.9998 68.544V76.608C85.9998 77.7213 86.8953 78.624 87.9998 78.624C89.1043 78.624 89.9998 77.7213 89.9998 76.608Z" fill="white"/>
<path d="M97.9995 76.608V68.544C97.9995 67.4307 97.104 66.528 95.9995 66.528C94.895 66.528 93.9995 67.4307 93.9995 68.544V76.608C93.9995 77.7213 94.895 78.624 95.9995 78.624C97.104 78.624 97.9995 77.7213 97.9995 76.608Z" fill="white"/>
<path d="M64 102.816C62.8955 102.816 62 103.719 62 104.832C62 105.945 61.1045 106.848 60 106.848C58.8955 106.848 58 105.945 58 104.832C58 103.719 58.8955 102.816 60 102.816C61.1045 102.816 62 101.913 62 100.8C62 99.6868 61.1045 98.7841 60 98.7841C56.6865 98.7841 54 101.492 54 104.832C54 108.173 56.6865 110.88 60 110.88C63.3135 110.88 66 108.173 66 104.832C66 103.719 65.1045 102.816 64 102.816Z" fill="white"/>
<path d="M72.0002 98.7841C70.8958 98.7841 70.0002 99.6868 70.0002 100.8V108.864C70.0002 109.977 70.8958 110.88 72.0002 110.88C73.1047 110.88 74.0002 109.977 74.0002 108.864V100.8C74.0002 99.6868 73.1047 98.7841 72.0002 98.7841Z" fill="white"/>
<path d="M80 98.7841C78.8955 98.7841 78 99.6868 78 100.8V108.864C78 109.977 78.8955 110.88 80 110.88C81.1045 110.88 82 109.977 82 108.864V100.8C82 99.6868 81.1045 98.7841 80 98.7841Z" fill="white"/>
<path d="M87.9998 98.7841C86.8953 98.7841 85.9998 99.6868 85.9998 100.8V108.864C85.9998 109.977 86.8953 110.88 87.9998 110.88C89.1043 110.88 89.9998 109.977 89.9998 108.864V100.8C89.9998 99.6868 89.1043 98.7841 87.9998 98.7841Z" fill="white"/>
<path d="M95.9995 98.7841C94.895 98.7841 93.9995 99.6868 93.9995 100.8V108.864C93.9995 109.977 94.895 110.88 95.9995 110.88C97.104 110.88 97.9995 109.977 97.9995 108.864V100.8C97.9995 99.6868 97.104 98.7841 95.9995 98.7841Z" fill="white"/>
<path d="M15.1603 72.1933C15.4249 72.3114 15.711 72.3724 16.0001 72.3744C16.9269 72.3606 17.7218 71.706 17.922 70.7945C18.1212 69.882 17.6739 68.9517 16.8399 68.5442C7.43858 64.2011 2.30675 53.8445 4.51085 43.6592C6.71397 33.4739 15.6583 26.2111 26.0001 26.2082C28.0294 26.2072 30.0489 26.4917 32.0001 27.0548C32.9962 27.3451 34.046 26.8195 34.42 25.8459C39.4532 12.6868 52.0089 4.01448 66.0001 4.03219C81.9356 4.11094 95.7052 15.2738 99.2003 30.946C99.379 31.7542 100.029 32.3694 100.84 32.4983C109.568 33.904 115.993 41.4906 116 50.4002C115.991 50.9869 115.951 51.5726 115.88 52.1543C115.807 52.6958 115.955 53.245 116.29 53.6742C116.626 54.1034 117.12 54.3771 117.66 54.4322C118.194 54.4883 118.729 54.3259 119.142 53.9804C119.556 53.6358 119.815 53.1377 119.86 52.5983C119.948 51.8689 119.995 51.1355 120 50.4002C120.041 40.0052 112.874 30.9923 102.8 28.7686C98.4083 11.8875 83.3136 0.0868195 66.0001 0.000194465C50.9767 -0.0480398 37.3526 8.88024 31.2999 22.7412C29.5587 22.3642 27.7814 22.1742 26.0001 22.1762C13.7892 22.189 3.23253 30.7659 0.626082 42.791C-1.97939 54.8161 4.06651 67.0489 15.1603 72.1933Z" fill="white"/>
<path d="M31.9998 73.8065C32.1649 73.8351 32.3348 73.8351 32.4998 73.8065C34.7801 73.2218 36.9676 72.3191 38.9999 71.1251C39.4598 70.8554 39.7938 70.4124 39.9286 69.8946C40.0633 69.3758 39.9881 68.8256 39.7196 68.3629C39.1639 67.41 37.951 67.0862 36.9998 67.6374C35.2772 68.6435 33.4266 69.4103 31.4998 69.9153C30.3953 70.0541 29.6121 71.07 29.7498 72.1833C29.8875 73.2966 30.8953 74.0861 31.9998 73.9473V73.8065Z" fill="white"/>
<path d="M24.0002 86.688C25.1047 86.688 26.0002 85.7854 26.0002 84.672V53.0214L30.3401 59.5734C30.7083 60.1365 31.3313 60.4771 32.0002 60.48C32.3938 60.485 32.7786 60.3649 33.0999 60.1375C34.0129 59.5222 34.2629 58.2809 33.6604 57.3556L25.6604 45.2596C25.6604 45.2596 25.6604 45.2596 25.5598 45.1582C25.1809 44.6818 24.6067 44.4042 24.0002 44.4042C23.3938 44.4042 22.8196 44.6818 22.4407 45.1582C22.4407 45.1582 22.4407 45.1582 22.3401 45.2596L14.3401 57.3556C13.8518 58.2731 14.137 59.414 14.9983 59.9888C15.8587 60.5637 17.012 60.3836 17.6604 59.5734L22.0003 53.0214V84.672C22.0003 85.7854 22.8958 86.688 24.0002 86.688Z" fill="white"/>
<path d="M75.0994 36.6307C74.1824 36.0234 72.95 36.2754 72.3396 37.1957L67.9998 43.7477V20.1601C67.9998 19.0468 67.1043 18.1441 65.9998 18.1441C64.8953 18.1441 63.9998 19.0468 63.9998 20.1601V43.7477L59.66 37.1957C59.3006 36.5214 58.5945 36.11 57.8357 36.1336C57.077 36.1572 56.3973 36.611 56.0799 37.306C55.7635 38.001 55.8641 38.817 56.3396 39.4135L64.3396 51.5095C64.7117 52.0667 65.3338 52.4004 65.9998 52.4004C66.6658 52.4004 67.2879 52.0667 67.6599 51.5095L75.6599 39.4135C76.2625 38.4882 76.0125 37.2459 75.0994 36.6307Z" fill="white"/>
</svg>
